PathFileType	4	(X/Y/Z)	./motion_analysis/DM_ngait_tm_ss1_new.trc
DataRate	CameraRate	NumFrames	NumMarkers	Units	OrigDataRate	OrigDataStartFrame	OrigNumFrames
120	120	4	68	mm	120	524	2097
Frame#	Time	Sternum			Neck			R_Shoulder			L_Shoulder			Xiphoid			Thoracic			R_Asis			L_Asis			R_Psis			L_Psis			Lumbar			R_Elbow			R_ElbowMedial			R_ShoulderAnterior			R_ShoulderPosterior			R_Wrist			R_Radius			R_Ulna			L_Elbow			L_ElbowMedial			L_ShoulderAnterior			L_ShoulderPosterior			L_Wrist			L_Ulna			L_Radius			L_Thigh_Superior			L_Thigh_Inferior			L_Thigh_Lateral			L_Knee_Lateral			L_Knee_Medial			L_Patella			L_Shank_Superior			L_Shank_Inferior			L_Shank_Lateral			L_Ankle_Lateral			L_Ankle_Medial			R_Thigh_Superior			R_Thigh_Inferior			R_Thigh_Lateral			R_Knee_Lateral			R_Knee_Medial			R_Patella			R_Shank_Superior			R_Shank_Inferior			R_Shank_Lateral			R_Ankle_Lateral			RankleMedial			R_Heel			R_Toe			R_Midfoot_Medial			R_Midfoot_Lateral			R_Hindfoot			R_Midfoot_Superior			R_ToeMedial			R_ToeLateral			L_Heel			L_Toe			L_Midfoot_Medial			L_Midfoot_Lateral			L_Hindfoot			L_Midfoot_Superior			L_ToeMedial			L_ToeLateral			Oglobal			Sacral			Xglobal			Yglobal			Zglobal			
		X1	Y1	Z1	X2	Y2	Z2	X3	Y3	Z3	X4	Y4	Z4	X5	Y5	Z5	X6	Y6	Z6	X7	Y7	Z7	X8	Y8	Z8	X9	Y9	Z9	X10	Y10	Z10	X11	Y11	Z11	X12	Y12	Z12	X13	Y13	Z13	X14	Y14	Z14	X15	Y15	Z15	X16	Y16	Z16	X17	Y17	Z17	X18	Y18	Z18	X19	Y19	Z19	X20	Y20	Z20	X21	Y21	Z21	X22	Y22	Z22	X23	Y23	Z23	X24	Y24	Z24	X25	Y25	Z25	X26	Y26	Z26	X27	Y27	Z27	X28	Y28	Z28	X29	Y29	Z29	X30	Y30	Z30	X31	Y31	Z31	X32	Y32	Z32	X33	Y33	Z33	X34	Y34	Z34	X35	Y35	Z35	X36	Y36	Z36	X37	Y37	Z37	X38	Y38	Z38	X39	Y39	Z39	X40	Y40	Z40	X41	Y41	Z41	X42	Y42	Z42	X43	Y43	Z43	X44	Y44	Z44	X45	Y45	Z45	X46	Y46	Z46	X47	Y47	Z47	X48	Y48	Z48	X49	Y49	Z49	X50	Y50	Z50	X51	Y51	Z51	X52	Y52	Z52	X53	Y53	Z53	X54	Y54	Z54	X55	Y55	Z55	X56	Y56	Z56	X57	Y57	Z57	X58	Y58	Z58	X59	Y59	Z59	X60	Y60	Z60	X61	Y61	Z61	X62	Y62	Z62	X63	Y63	Z63	X64	Y64	Z64	X65	Y65	Z65	X66	Y66	Z66	X67	Y67	Z67	X68	Y68	Z68	

525	4.375	-904.679	1389.29	448.163	-756.176	1481.33	410.816	-882.002	1415.03	272.266	-796.65	1444.56	603.048	-915.422	1224.36	460.236	-650.366	1298.01	419.301	-836.553	1005.92	316.86	-807.329	1003.06	593.463	-624.912	1046.18	404.275	-619.838	1046.2	482.529	-622.457	1096.41	440.93	-997.327	1113.87	226.567	-0	0	0	-0	0	0	-0	0	0	-1193.49	960.802	343.727	-1165.31	959.503	381.031	-1170.99	934.227	311.656	-756.65	1108.63	711.3579999999999	-0	0	0	-0	0	0	-0	0	0	-836.8339999999999	852.097	693.592	-794.172	858.241	716.74	-828.739	867.259	650.547	-773.471	835.324	632.849	-859.196	625.251	633.621	-887.069	722.241	606.0309999999999	-0	0	0	-0	0	0	-912.2329999999999	518.8680000000001	598.249	-798.926	491.868	638.318	-607.279	306.002	610.4450000000001	-739.546	363.709	563.715	-0	0	0	-0	0	0	-754.788	817.505	287.256	-786.831	605.452	336.262	-862.643	674.8630000000001	383.117	-0	0	0	-0	0	0	-862.84	522.5	416.07	-0	0	0	-721.792	206.291	345.468	-794.12	326.63	415.668	-0	0	0	-0	0	0	-623.981	78.0771	399.676	-923.235	68.7294	392.945	-846.814	45.1725	445.269	-833.312	45.5105	328.779	-723.024	43.9928	343.506	-786.535	134.08	393.95	-889.874	56.3777	438.341	-882.26	56.4509	344.785	-486.908	259.601	538.032	-697.9640000000001	57.3804	592.1950000000001	-636.682	90.3753	528.128	-605.265	104.136	637.351	-524.665	171.25	608.569	-642.641	193.642	578.529	-665.551	65.5812	541.7910000000001	-648.205	70.5947	636.458	-0	0	0	-622.375	1046.19	443.402	-200	0	0	-0	0	200	-0	200	0	
526	4.383333	-903.889	1390.46	448.175	-755.7089999999999	1482.41	410.095	-882.319	1416.29	272.25	-794.755	1445.74	602.722	-914.545	1225.34	460.136	-649.792	1299.01	418.388	-835.696	1006.81	316.506	-806.418	1003.98	593.023	-624.13	1047.56	403.869	-619.063	1047.75	482.112	-621.8339999999999	1097.87	440.51	-997.89	1115.28	226.542	-0	0	0	-0	0	0	-0	0	0	-1193.9	961.388	342.99	-1165.71	960.211	380.46	-1171.2	934.819	311.081	-748.1369999999999	1110.74	711.303	-0	0	0	-0	0	0	-0	0	0	-824.576	853.079	695.378	-781.604	859.763	717.561	-817.711	868.288	652.404	-774.506	837.064	632.365	-862.929	628.576	632.971	-889.193	725.8680000000001	605.866	-0	0	0	-0	0	0	-917.927	523.489	597.658	-806.212	492.752	637.957	-620.98	299.998	611.189	-750.386	363.101	563.351	-0	0	0	-0	0	0	-751.811	818.544	286.988	-780.076	605.888	335.884	-856.894	674.066	382.99	-0	0	0	-0	0	0	-854.798	521.891	415.728	-0	0	0	-712.268	206.661	345.308	-785.158	326.734	415.396	-0	0	0	-0	0	0	-614.0069999999999	78.307	399.702	-913.221	68.6352	392.94	-836.704	44.9173	445.612	-823.4	45.4983	329.099	-713.014	44.0283	343.562	-776.943	134.122	394.348	-879.879	56.3215	438.402	-872.308	56.2649	344.975	-501.521	248.735	539.904	-721.955	56.2105	588.9450000000001	-659.15	87.0245	526.848	-628.213	98.20359999999999	636.502	-543.981	161.701	609.134	-660.148	190.152	578.11	-688.873	63.5184	539.407	-672.481	66.6696	634.319	-0	0	0	-621.596	1047.66	442.99	-200	0	0	-0	0	200	-0	200	0	
527	4.391667	-903.165	1391.46	448.288	-755.201	1483.33	409.417	-882.524	1417.4	272.331	-792.921	1446.8	602.446	-913.751	1226.13	460.268	-649.255	1299.87	417.564	-834.7	1007.48	316.233	-805.496	1004.71	592.663	-623.2619999999999	1048.75	403.655	-618.245	1049.12	481.835	-621.14	1099.15	440.253	-998.4349999999999	1116.62	226.58	-0	0	0	-0	0	0	-0	0	0	-1194.33	961.817	342.293	-1166.13	960.72	379.949	-1171.47	935.42	310.423	-739.829	1112.82	711.107	-0	0	0	-0	0	0	-0	0	0	-812.394	854.121	697.403	-768.9640000000001	861.208	718.266	-806.5549999999999	869.294	653.861	-775.046	838.727	632.175	-866.4400000000001	631.528	632.14	-891.093	729.427	605.443	-0	0	0	-0	0	0	-923.202	527.937	596.773	-813.259	493.372	637.449	-634.968	293.62	611.835	-761.538	361.983	563.463	-0	0	0	-0	0	0	-748.957	819.509	286.721	-773.395	606.301	335.46	-851.6559999999999	673.054	382.613	-0	0	0	-0	0	0	-846.91	521.226	415.37	-0	0	0	-702.825	207.01	345.127	-776.222	326.814	414.939	-0	0	0	-0	0	0	-604.019	78.6134	399.657	-903.231	68.523	392.985	-826.724	45.0656	445.41	-813.276	45.2444	328.913	-703.001	44.0701	343.554	-766.712	134.063	393.91	-869.854	56.291	438.481	-862.321	56.1947	344.997	-516.539	237.565	541.996	-746.309	55.2726	586.928	-681.39	83.54949999999999	525.5309999999999	-651.462	92.4372	635.674	-563.979	152.151	609.908	-678.242	186.224	577.612	-712.4349999999999	61.6186	537.654	-697.114	63.0061	632.6369999999999	-0	0	0	-620.753	1048.94	442.745	-200	0	0	-0	0	200	-0	200	0	
528	4.4	-902.365	1392.23	448.275	-754.711	1484.03	408.804	-882.693	1418.37	272.308	-790.955	1447.87	602.424	-912.879	1226.82	460.166	-648.659	1300.56	416.808	-833.646	1007.97	315.941	-804.534	1005.39	592.37	-622.3390000000001	1049.8	403.41	-617.384	1050.31	481.582	-620.381	1100.27	439.995	-998.967	1117.81	226.482	-0	0	0	-0	0	0	-0	0	0	-1194.83	962.294	341.747	-1166.59	961.38	379.364	-1171.76	936.053	309.808	-731.773	1114.87	710.832	-0	0	0	-0	0	0	-0	0	0	-800.202	855.111	699.535	-756.222	862.658	718.853	-795.7380000000001	870.199	655.653	-774.842	840.679	632.4059999999999	-869.698	634.169	631.091	-892.726	732.591	604.872	-0	0	0	-0	0	0	-928.072	532.183	595.747	-820.01	493.83	636.727	-649.372	286.82	612.5410000000001	-772.401	360.87	563.072	-0	0	0	-0	0	0	-746.196	820.2380000000001	286.529	-766.803	606.6369999999999	334.962	-846.378	672.198	382.623	-0	0	0	-0	0	0	-839.35	520.763	414.254	-0	0	0	-693.3680000000001	207.367	344.898	-767.424	326.898	414.616	-0	0	0	-0	0	0	-594.245	79.0433	399.343	-893.226	68.3912	393.045	-816.765	45.1048	445.699	-803.586	45.0017	329.172	-692.9589999999999	44.0796	343.622	-756.915	134.047	393.827	-859.828	56.2103	438.442	-852.328	56.06	344.963	-532.258	226.045	544.074	-770.527	54.7114	585.331	-704.266	80.3612	525.179	-675.087	87.2897	635.663	-584.413	142.723	611.1130000000001	-697.499	182.302	577.967	-735.737	59.6544	535.937	-722.024	59.8629	631.4880000000001	-0	0	0	-619.862	1050.06	442.496	-200	0	0	-0	0	200	-0	200	0	
